<?xml version="1.0" standalone="no"?>
<!DOCTYPE svg PUBLIC "-//W3C//DTD SVG 20010904//EN"
 "http://www.w3.org/TR/2001/REC-SVG-20010904/DTD/svg10.dtd">
<svg version="1.0" xmlns="http://www.w3.org/2000/svg"
 width="96.000000pt" height="96.000000pt" viewBox="0 0 96.000000 96.000000"
 preserveAspectRatio="xMidYMid meet">
<metadata>
Created by potrace 1.14, written by Peter Selinger 2001-2017
</metadata>
<g transform="translate(0.000000,96.000000) scale(0.100000,-0.100000)"
fill="#000000" stroke="none">
<path d="M0 480 l0 -480 480 0 480 0 0 480 0 480 -480 0 -480 0 0 -480z m649
169 c97 -28 180 -55 184 -59 5 -4 -10 -11 -32 -15 l-41 -7 0 -79 c0 -44 4 -79
10 -79 19 0 33 -41 21 -67 -8 -17 -8 -30 0 -45 9 -17 8 -19 -9 -14 -16 5 -21
2 -25 -16 -4 -19 -5 -18 -6 6 -1 29 -1 29 -22 10 -22 -19 -22 -19 -9 5 10 19
9 28 -1 48 -11 20 -10 29 5 57 12 23 16 50 14 98 l-3 66 -130 -32 -130 -32
-165 38 c-91 21 -172 41 -180 44 -11 5 209 84 339 123 1 1 82 -22 180 -50z
m-78 -164 c52 14 97 25 102 25 4 0 7 -27 7 -60 0 -55 -2 -61 -27 -73 -82 -41
-245 -47 -330 -12 l-43 17 0 63 0 63 98 -24 99 -23 94 24z"/>
</g>
</svg>
